# xmcd
#
# Track frame offsets:
#	150
#	23942
#	42062
#	47525
#	59162
#	72297
#	83640
#	98832
#	113137
#	126155
#	138672
#	148950
#	164870
#	193677
#	205275
#	224710
#	238505
#	252082
#	264552
#	284402
#
# Disc length: 3966 seconds
#
# Revision: 1
# Processed by: cddbd v1.5.1PL0 Copyright (c) Steve Scherf et al.
# Submitted via: audiograbber 1.83.01
#
DISCID=410f7c14
DTITLE=Turner,Ike+Tina - The Ike+Tina Turner Revue live at the Zirkus Krone, Mu
DTITLE=nich, November 1973
DYEAR=1900
DGENRE=
TTITLE0=Intro: "Family vibes" - "Shaft" - Eddie Burks introduces the Ikettes 
TTITLE1=I got cha
TTITLE2=Eddie Burks introduces Ike+Tina Turner
TTITLE3=She cam in through the bathroom window
TTITLE4=Annie had a baby
TTITLE5=Don't fight it
TTITLE6=Get back
TTITLE7=Games people play
TTITLE8=I can't turn you loose
TTITLE9=I want to take you higher
TTITLE10=River deep mountain high
TTITLE11=Come together
TTITLE12=Proud Mary
TTITLE13=Proud Mary - Encore
TTITLE14=Pick me up and take me
TTITLE15=With a little help from my friends
TTITLE16=Honky tonk women
TTITLE17=Baby get it on
TTITLE18=Respect
TTITLE19=Nutbush city limits
EXTD=
EXTT0=
EXTT1=
EXTT2=
EXTT3=
EXTT4=
EXTT5=
EXTT6=
EXTT7=
EXTT8=
EXTT9=
EXTT10=
EXTT11=
EXTT12=
EXTT13=
EXTT14=
EXTT15=
EXTT16=
EXTT17=
EXTT18=
EXTT19=
PLAYORDER=
